<svg width="25" height="20" viewBox="0 0 25 20" fill="none" xmlns="http://www.w3.org/2000/svg">
<path opacity="0.5" d="M17.7693 13.1245L17.2761 12.7432L15.741 11.5565L15.4568 11.3369L15.5743 10.9974C15.6861 10.6743 15.7454 10.3353 15.75 9.99342L17.7693 13.1245ZM17.7693 13.1245L18.0345 12.5603M17.7693 13.1245L18.0345 12.5603M18.0345 12.5603C18.3975 11.7879 18.6249 10.9285 18.6249 10.0003M18.0345 12.5603L18.6249 10.0003M12.2559 6.76311C12.5471 6.73637 12.8416 6.74956 13.1311 6.80312C13.6234 6.8942 14.0875 7.09947 14.4861 7.40244C14.8847 7.70541 15.2066 8.09764 15.4261 8.54762C15.6456 8.99758 15.7565 9.49275 15.75 9.99334L12.2559 6.76311ZM12.2559 6.76311C12.3338 6.99912 12.3745 7.24744 12.3749 7.49911L12.3749 7.51059L12.3744 7.52205C12.367 7.69029 12.3413 7.85721 12.2978 8.01988L12.1035 8.74572L11.509 8.28624L8.63361 6.06398L8.14142 5.68358L8.61875 5.28469C9.70741 4.37493 11.0808 3.87605 12.4995 3.875L12.4996 3.875C13.3041 3.87455 14.1009 4.03268 14.8442 4.34035C15.5876 4.64801 16.263 5.09918 16.8319 5.66805C17.4007 6.23693 17.8519 6.91235 18.1596 7.65571C18.4672 8.39906 18.6254 9.19577 18.6249 10.0003M12.2559 6.76311L18.6249 10.0003M12.4999 16.125L12.5046 16.125C12.7991 16.1222 13.0929 16.0983 13.3838 16.0533L14.3887 16.8309C13.7708 16.9389 13.1415 17 12.4999 17C7.89951 17 3.87084 14.3214 1.83152 10.3436C1.77788 10.2371 1.74994 10.1195 1.74994 10.0002C1.74994 9.88088 1.77789 9.76323 1.83156 9.65668C2.13741 9.05954 2.5044 8.49895 2.90962 7.95959L6.44053 10.6884C6.78431 13.7423 9.34685 16.125 12.4999 16.125ZM20.1179 14.1747L19.6443 14.5739L20.1344 14.9526L24.4518 18.2894C24.4519 18.2895 24.452 18.2896 24.4521 18.2897C24.4781 18.31 24.495 18.3398 24.4991 18.3725C24.5032 18.4054 24.4941 18.4386 24.4738 18.4648L23.7067 19.4518L23.7067 19.4518C23.6966 19.4648 23.6841 19.4756 23.6698 19.4837C23.6555 19.4919 23.6398 19.4971 23.6235 19.4991C23.6072 19.5012 23.5906 19.5 23.5748 19.4956C23.559 19.4913 23.5442 19.4838 23.5312 19.4737L23.5299 19.4727L0.548266 1.71077C0.548144 1.71068 0.548022 1.71058 0.5479 1.71049C0.521941 1.69014 0.505068 1.66036 0.50097 1.62762C0.496853 1.59473 0.505969 1.56155 0.526313 1.53538L0.526417 1.53525L1.29317 0.548199C1.29318 0.548179 1.2932 0.548158 1.29321 0.548138C1.30328 0.535197 1.3158 0.524364 1.33005 0.516254C1.34432 0.508133 1.36006 0.502903 1.37635 0.500864C1.39265 0.498825 1.40919 0.500018 1.42502 0.504373C1.44085 0.508728 1.45568 0.51616 1.46864 0.526246L1.46863 0.526248L1.46993 0.527247L6.43946 4.36826L6.69804 4.56812L6.98487 4.41148C8.67652 3.48767 10.5727 3.0024 12.5001 3C17.1005 3.00008 21.1292 5.67872 23.1684 9.65656C23.222 9.76304 23.2499 9.88059 23.2499 9.9998C23.2499 10.119 23.222 10.2366 23.1684 10.3431C22.4155 11.8098 21.3786 13.1123 20.1179 14.1747Z" stroke="#18345E"/>
</svg>
